<svg width="107" height="124" viewBox="0 0 107 124" fill="none" xmlns="http://www.w3.org/2000/svg">
<path d="M19 21.5H63M19 37H63M19 52H82.5" stroke="black" stroke-width="5" stroke-linecap="round"/>
<path d="M81.5 3.5V29C81.5 29.5523 81.9477 30 82.5 30H104.5" stroke="black" stroke-width="5"/>
<path d="M80.5502 3H4C3.44772 3 3 3.44772 3 4V120C3 120.552 3.44772 121 4 121H103.5C104.052 121 104.5 120.552 104.5 120V29.8795C104.5 29.635 104.41 29.399 104.248 29.216L81.2984 3.33651C81.1086 3.1225 80.8363 3 80.5502 3Z" stroke="black" stroke-width="5"/>
<path d="M40 108.021C40 108.021 35 108.484 35 104.781C35 101.077 35 98.7622 35 94.5956C35 90.4289 27 91.3548 27 89.04C27 86.7252 35 87.6511 35 83.4844C35 79.3178 35 77.003 35 73.2993C35 69.5956 40 70.0585 40 70.0585" stroke="black" stroke-width="5" stroke-linecap="round"/>
<path d="M62 108.021C62 108.021 67 108.484 67 104.781C67 101.077 67 98.7622 67 94.5956C67 90.4289 75 91.3548 75 89.04C75 86.7252 67 87.6511 67 83.4844C67 79.3178 67 77.003 67 73.2993C67 69.5956 62 70.0585 62 70.0585" stroke="black" stroke-width="5" stroke-linecap="round"/>
</svg>
